<?xml-stylesheet type="text/css" href="icon_style.css" ?> <svg xmlns="http://www.w3.org/2000/svg" viewBox="0 0 648.58 976.88"><defs><style>.cls-1{}</style></defs><title>Hot Game Logo SMALL SIZE</title><g id="Слой_2" data-name="Слой 2"><g id="Logo"><g id="Hot_Game_Fire" data-name="Hot Game Fire"><path class="cls-1" d="M459.42,341.77c-15.27-21.87-8.06-9.48-28.26-53.56-27.29,60.76,22.2,195.36,24.26,213.56s-11.67,94.38-61.79,49.14c-12.3-17.89-50.52-81.61-12.51-200.15,85-250.5-65-359-62.54-350.27,20.2,25.81,23.15,64.24,18.83,143.28-2.5,45.89-13.41,71.87-26,91-39.14,59.46-78.26,27.9-55.37-59.15-19,31.31-37.81,61.77-138.79,168.15-326.84,418.38,134.11,647,126.28,632.46C135.09,863.28,123.36,799.14,143.49,751.06c21.24-41.38,79.73-101.82,87.55-137.6,6.71,17.89,23.21,74.55,0,112.59-29.9,29.06,58.48,129.77,62.54-12.51.34-11.77-9.22-60.44-15.15-85.76-3.24-13.84-6.21-16.87-7.76-26.43-11.21-69.27,69.54-197.95,47.92-138-24.6,68.22.16,143.88,4.83,153.43s132.4,187.18,146,9c10.06-3.35,119.39,152.52-38.26,350.46C894.53,748,475.67,365.05,459.42,341.77Z"/></g></g></g></svg>