<?xml version="1.0" encoding="utf-8"?>
<!-- Generator: Adobe Illustrator 21.1.0, SVG Export Plug-In . SVG Version: 6.00 Build 0)  -->
<svg version="1.1" xmlns="http://www.w3.org/2000/svg" xmlns:xlink="http://www.w3.org/1999/xlink" x="0px" y="0px"
	 viewBox="0 0 300 300" style="enable-background:new 0 0 300 300;" xml:space="preserve">
<style type="text/css">
	.st0{fill:#FFFFFF;}
</style>
<g id="fire">
	<path class="st0" d="M40.9,29.1c0,0,4.6-5.6-0.8-13.3c-2.9-4.1-0.3-10-0.6-9.9c0,0-9.3,9-4.2,14.3C40.5,25.6,40.9,29.1,40.9,29.1z"
		/>
	<path class="st0" d="M55.7,25c3.9,1.5,1.3,7.5-1.1,7.6c1.1-7.3-6.8-7-4.8-12.8C52,24,53.2,24.1,55.7,25z"/>
	<path class="st0" d="M49.7,28.6c10.3,17.9-3.5,16.6,2,25.5c1,1.6,0.9,4.2-0.8,9.1c0,0-0.1-3.6-3.8-6.6c-4-3.2-0.6-8.1,0.4-9.9
		C54.5,34.3,50.4,31.7,49.7,28.6z"/>
	<path class="st0" d="M42.9,58.5c4.3,4.5,6.5,7.3,1.7,17.9c-1.2-6.2-6.7-7.1-7.2-14.4c-0.3-5.7-2.8-9.1-2.6-13.5
		c0.5-10.2,7.7-8.7,9.7-22.3C52.6,44.5,33.5,48.6,42.9,58.5z"/>
	<path class="st0" d="M28.3,24.1c3.9,6.4,7.1,11.2,5.3,19.8c0.4-2.7,4.5-9.3,3.3-12.3C36,29.5,31.7,28.5,28.3,24.1z"/>
	<path class="st0" d="M25.7,21.6c-1.5,11.4,9.2,9.1,2.4,32.1c-2.1,7.1,5.4,7.9,3,15.4c-3.4-4.8-7-4.7-9.7-11.1
		c-2-4.8,1.6-6.3,2.9-12.3c1.1-5.4-2.6-7-1.9-14.1C22.9,26.2,25.7,21.6,25.7,21.6z"/>
	<path class="st0" d="M16.6,33.6c0.2,8.7,7.3,5.8,3.4,15.3c-0.3-2.1-2.7-4.6-4-8.7C15.3,38.1,16.6,33.6,16.6,33.6z"/>
	<path class="st0" d="M31.5,57.8c0,0,6.6,4.4,5.8,12.4c-0.5,4.7-3.7,8.6-2.9,11.3c-1.7-1-2.4-5.3-1.2-8.8
		C37.2,60.7,31.5,57.8,31.5,57.8z"/>
	<path class="st0" d="M52.2,77.1c1.9,2.9-2.9,12.2-5.7,8c-1.1-1.6-2.9-1.7-4.1-1.5c-5.4,1-2.4-10.5-2.3-10.9c0,3.4,4.3,9.7,7,9.5
		C49.4,82,52.1,79.8,52.2,77.1z"/>
</g>
<g id="salamandra">
	<path class="st0" d="M217.4,50.8c5.2-4.1,12.8-8.1,23.4-8.2c-5.8-6-25.2-18.9-36-12.3c-5.8,3.6-5.8,3.6-10.7,7.3
		c5.6-6.8,13.5-10.1,22.7-11.8c-9.8-5-28.2-11-36.4-4.6c-5.3,4.1-5.2,4-7.7,8.3c1.2-6.2,15.6-14.8,19.3-14.7c0,0-32.9-4.7-38,2.2
		c-3.3,4.4-3.3,4.4-5.8,8.4c3.5-7.4,8.3-13.1,15.1-17c-12.9-0.6-26.8,2.3-30.9,9c-2.2,3.5-2.4,5.2-4.1,8.2C132,16,135,11.4,140,7.5
		c-10.2,2.3-25.9,5.1-29.4,13.9c-1.4,3.4-1,3.8-2.3,7.8c0.7-7.7,3.1-12.4,8.8-18.8c-6.4,1.3-22.2,8.7-26.1,18
		c-1.8,4.3-1.4,4.3-2.6,8c1.3-7.9,4.6-15.1,7.8-20.1c-7.4,2.5-20.1,12-22.8,21.5c-1,3.8-0.7,3.7-1.3,7.7c0.3-7.8,2-15.7,4.4-20.1
		c-5.3,3.2-17.8,19.1-29.4,53.7c0.9-1.7,39.6-47,98.5-39.5c55.9,7.1,85.5,48.9,93.4,79.3c16.4,62.5-36.1,102.6-81.4,98.5
		c-8-0.7-30.3-5.3-39.8-26.3c-10.8-23.7,9.5-54.5,9.5-54.5c21.1,19.3,42.9,24.9,65,21.5c-4-3.7-9.4-7.2-18.5-9.8
		c8.6,3.9,16.6,7,22.7,7.5c0,0,13.3-6,10.8-21.7s-10.8-23.2-10.8-29.8c-0.1-9.5-3.3-11.3-8.3-15c-15.9-17.6-35.9-25.8-45.6-27.3
		c-5.8-0.9-5.6,12.6-5.5,13.5c-0.2-2.6,0.4-11.9,1.6-14.1c-7.3-0.2-22-1.1-25.3,9c-0.8,2.6-0.4,2.1-0.8,5.1
		c-0.4-5.7,1-10.7,4.4-14.7c-5.6,0.4-25.5,5-26.9,14.9c-0.5,3.4,0,2.4-0.2,5.8c-1.4-4.7,0.3-12.5,2.7-16.3
		c-8.4,2.2-24.9,11.2-24.2,21.3c0.2,3.6,0.8,3.3,0,7.5c-1.4-5.2-2.3-10.6-1-17.7c-7.3,5.8-18,16.4-17.2,25.4c0.4,4.3,1,4.4,1.6,9
		c-4.3-8.2-5.1-13.3-4.2-19.4c-4.2,3.6-19.3,21.6-13.1,31.7c3,5,2.8,3.4,5.4,8.2c-5.5-4.3-9.1-11.7-10.4-17.7
		c-1.8,2.8-11.7,29.2-5,35.6c4.9,4.7,4.6,4.1,9,7.2c-8.5-2-14.3-11.6-15.8-16.9c-1.4,7.5-5.9,31.9,4.2,38.4
		c5.5,3.5,5.5,3.5,11.7,6.3c-11.6-3-17.8-8.7-21-12.4c1.2,11.7,7,34.6,15.7,37.5c6.2,2.1,5.7,1.1,13.1,2.5
		c-10.8,1.6-19.1-2.7-23.8-5.4c3.4,9.4,16.5,32.6,27.4,32c7.1-0.4,5.2-3.2,12.5-3.2c-7.2,5.2-17.7,5-22.9,4.7
		c2,2.1,19.6,26,33.9,20.9c6.8-2.4,6.3-3.9,13-6.4c-4.5,6.4-17.3,9-22.6,9.7c9.8,7,30.4,19.1,40.6,13.1c4.7-2.8,3.7-6.4,9.4-10.2
		c-5,10-11.3,13.2-18.1,16.5c8.7,3.5,31.6,10.3,40.6,1.2c3.6-3.6,3.4-4.9,6.6-11.9c-1.9,9.8-7.8,14.7-13.8,20.2
		c9.9,1.1,37,1.7,40.8-8.8c2-5.7,1.7-4.8,3-12.7c1.4,8.5-4.3,19-8.2,22.7c12.2-1.8,32.6-7.2,34.9-17.7c1.2-5.6,0.9-5.6,0.7-13
		c2.8,11.7-1.8,18.4-4.5,24.4c5.8-2.1,28.9-10.7,28.3-23.9c-0.2-5.3-0.6-5.6-2.5-12.4c4.8,10.3,3.4,17.6,0.9,24.6
		c9.2-5.5,26.3-20.9,24.2-30.6c-1.7-7.9-2.3-7.1-4.8-12c4.5,4.6,7.6,15.3,5.4,24.7c7-6.3,23.1-27.2,18.7-37.5
		c-2.8-6.6-2.8-6.6-6.9-11.8c5.3,4.1,10.6,15.3,10.8,23.7c6.6-10.4,16.9-34.1,9.8-42.4c-4.1-4.7-4.1-4.7-9.9-9
		c7.1,3.2,14.4,12.2,16.7,19.5c4.4-11.7,8.1-37.9-1.1-43.2c-6.7-3.8-6.7-3.8-11.6-5.8c7.2,0.6,17,7.3,20.8,14.2
		c1.3-13.7-2.6-37.8-11.5-40.4c-7.1-2-12.4-3-12.4-3c7.9,0.3,14.9,2.4,23.2,7.8c-3-13.2-9.7-34.3-20.7-35.7
		c-5.7-0.7-5.7-0.7-12.9-0.5c8.9-1.8,17.8-0.3,25,3.6c-4.4-12.2-18.1-31-28.9-30.5c-7.7,0.4-7.7,0.4-13.4,1.5
		c11.8-3.3,18.5-2.8,26.5-0.4c-5.2-8.2-21.7-27.7-35.2-23.1C223.3,47.2,223,47.2,217.4,50.8z"/>
	<path class="st0" d="M123.7,147.2c1.4,11.2,20.6,56.7,67,63.8c-15.3,5.9-44.8,9.1-63-9.1C111,185.1,115.9,164.5,123.7,147.2z"/>
</g>
</svg>
